<?xml version="1.0" encoding="UTF-8"?>
<svg version="1.1" xmlns="http://www.w3.org/2000/svg" width="183" height="99">
<path d="M0 0 C2.51759391 1.70471765 4.4821054 3.71015426 6.6171875 5.87109375 C8.74292041 8.02469388 8.74292041 8.02469388 11.1171875 9.43359375 C13.85363728 9.25453076 15.84899067 8.44109322 18.37890625 7.3984375 C24.9373336 5.08755083 32.57065283 5.44403364 38.9921875 8.05859375 C47.14212688 12.35746288 51.98820365 17.67505736 55.1171875 26.43359375 C55.72700608 29.491721 55.96582906 32.30551928 56.1171875 35.43359375 C53.4771875 35.43359375 50.8371875 35.43359375 48.1171875 35.43359375 C47.97023437 34.79292969 47.82328125 34.15226562 47.671875 33.4921875 C45.69033848 25.85074495 42.84898907 21.12396232 36.4296875 16.49609375 C30.03261371 14.44420216 23.66552532 14.33665623 17.5546875 17.30859375 C15.34727665 18.54768092 13.92804019 19.62274106 12.1171875 21.43359375 C11.1271875 21.43359375 10.1371875 21.43359375 9.1171875 21.43359375 C7.57421875 19.640625 7.57421875 19.640625 5.9296875 17.24609375 C1.21970627 10.95292555 -4.13982473 7.2696913 -11.89453125 5.71875 C-20.49414952 4.48540593 -27.81950903 6.19822865 -35.1875 10.90625 C-44.14291707 18.05368664 -46.61665193 27.43500489 -47.8828125 38.43359375 C-48.7284375 38.58054688 -49.5740625 38.7275 -50.4453125 38.87890625 C-59.57925017 40.68493484 -65.30824449 43.1064851 -71.2578125 50.30859375 C-74.73133631 56.98844722 -75.63909369 63.0597955 -73.8828125 70.43359375 C-71.78930975 76.65721334 -68.34402939 80.84269057 -62.8828125 84.43359375 C-55.94835462 87.72111745 -49.11340908 87.86802356 -41.56103516 87.83764648 C-39.75677315 87.84794136 -39.75677315 87.84794136 -37.9160614 87.85844421 C-34.64105336 87.8735313 -31.36640545 87.87522764 -28.09137774 87.86950183 C-25.345656 87.86639374 -22.59998484 87.87252043 -19.85427034 87.87854058 C-13.37025134 87.89254934 -6.88636419 87.89105556 -0.40234375 87.87963867 C6.26028587 87.86816566 12.92251255 87.88222737 19.58508909 87.90903515 C25.32979721 87.93127411 31.07437962 87.93781105 36.81912768 87.93195873 C40.23943466 87.92860686 43.65948359 87.93088469 47.07975388 87.94820976 C50.89901032 87.96316392 54.71739117 87.95240831 58.53662109 87.93530273 C59.65177597 87.9449707 60.76693085 87.95463867 61.9158783 87.96459961 C70.88822213 87.88087574 79.46513425 86.45527849 86.0546875 79.93359375 C89.90295594 75.04925304 91.52476686 69.36808062 93.1171875 63.43359375 C95.4271875 63.43359375 97.7371875 63.43359375 100.1171875 63.43359375 C100.77719733 72.50872885 97.56913131 79.51472163 91.9296875 86.578125 C83.79457012 94.90610077 73.43175543 96.40445661 62.23718262 96.68756104 C60.1653155 96.69924052 58.09336903 96.70036569 56.02148438 96.69238281 C54.87833267 96.69588745 53.73518097 96.69939209 52.55738831 96.70300293 C48.81684105 96.71173222 45.07648633 96.70600229 41.3359375 96.69921875 C38.71382613 96.70056793 36.09171501 96.70251056 33.46960449 96.70501709 C27.98931838 96.70863959 22.50908645 96.70390299 17.02880859 96.69433594 C10.72353952 96.68345469 4.41839986 96.68698149 -1.88686609 96.69798875 C-7.99189095 96.70821344 -14.09685915 96.7070612 -20.20188904 96.70122528 C-22.78209959 96.69989766 -25.36231349 96.70150514 -27.94252014 96.70618439 C-31.55747033 96.71130254 -35.17217715 96.70346536 -38.78710938 96.69238281 C-40.36322243 96.69845551 -40.36322243 96.69845551 -41.97117615 96.70465088 C-53.29284674 96.64082862 -63.81670935 95.78999925 -72.8828125 88.43359375 C-80.90982532 80.23998255 -83.36777381 72.67511188 -83.30932617 61.37133789 C-83.11159537 55.57599086 -81.89882499 51.32670492 -78.8828125 46.43359375 C-78.3465625 45.40234375 -77.8103125 44.37109375 -77.2578125 43.30859375 C-72.63218456 37.7091494 -66.06661622 32.97298026 -58.8828125 31.43359375 C-57.5628125 31.43359375 -56.2428125 31.43359375 -54.8828125 31.43359375 C-54.79 29.51546875 -54.79 29.51546875 -54.6953125 27.55859375 C-53.73922892 19.1131888 -49.23382051 11.06821908 -42.8828125 5.43359375 C-30.76834324 -3.12360884 -13.98967785 -6.60758141 0 0 Z " fill="#64B1E3" transform="translate(82.8828125,2.56640625)"/>
<path d="M0 0 C3.07442734 2.92070597 3.70910648 5.26235371 4.5 9.375 C1.86 9.375 -0.78 9.375 -3.5 9.375 C-3.83 8.385 -4.16 7.395 -4.5 6.375 C-6.90545638 5.17227181 -8.44996953 5.27428528 -11.125 5.3125 C-11.94226563 5.32152344 -12.75953125 5.33054687 -13.6015625 5.33984375 C-14.22804687 5.35144531 -14.85453125 5.36304688 -15.5 5.375 C-15.5 7.355 -15.5 9.335 -15.5 11.375 C-14.54738281 11.54515625 -13.59476563 11.7153125 -12.61328125 11.890625 C-10.73189453 12.25414062 -10.73189453 12.25414062 -8.8125 12.625 C-6.95044922 12.97304688 -6.95044922 12.97304688 -5.05078125 13.328125 C-1.25621415 14.44687526 0.78738339 15.50970329 3.5 18.375 C4.44111374 21.77961734 4.21382659 24.92855599 3.5 28.375 C1.30977082 31.19924288 -0.33017207 32.79008603 -3.5 34.375 C-9.3619808 34.86889617 -14.70083684 35.18152142 -20.125 32.75 C-22.76412625 30.11087375 -24.16745285 27.85442868 -25.5 24.375 C-25.5 23.385 -25.5 22.395 -25.5 21.375 C-23.19 21.375 -20.88 21.375 -18.5 21.375 C-17.84 23.025 -17.18 24.675 -16.5 26.375 C-14.87585622 26.56977739 -13.25063577 26.75559458 -11.625 26.9375 C-10.72007812 27.04191406 -9.81515625 27.14632812 -8.8828125 27.25390625 C-6.48346943 27.57174852 -6.48346943 27.57174852 -4.5 26.375 C-4.5 25.055 -4.5 23.735 -4.5 22.375 C-5.62019531 22.06046875 -6.74039063 21.7459375 -7.89453125 21.421875 C-9.367407 20.99033179 -10.84005146 20.55799863 -12.3125 20.125 C-13.05048828 19.92003906 -13.78847656 19.71507813 -14.54882812 19.50390625 C-17.78764684 18.53665722 -20.01142678 17.84145278 -22.484375 15.48046875 C-24.25914806 11.80122767 -24.13293137 8.35748951 -23.5 4.375 C-21.65775376 1.04478564 -20.22574234 -0.24484925 -16.875 -2 C-10.82383977 -3.12058523 -5.58940713 -2.59508188 0 0 Z " fill="#1D1B16" transform="translate(155.5,47.625)"/>
<path d="M0 0 C3.7897738 2.79517253 6.01468715 6.64624774 6.7265625 11.2734375 C1.45597426 11.71265319 1.45597426 11.71265319 -1.2734375 11.2734375 C-3.6484375 8.8359375 -3.6484375 8.8359375 -5.2734375 6.2734375 C-9.02442601 4.39794325 -13.09251109 5.01100941 -17.0859375 5.8984375 C-19.49176637 7.154808 -19.49176637 7.154808 -20.6484375 9.8984375 C-21.44912135 14.22213028 -21.24681366 16.96277163 -20.2734375 21.2734375 C-18.37915704 23.65656453 -16.97332571 24.9234934 -14.2734375 26.2734375 C-8.38863258 26.70237808 -8.38863258 26.70237808 -3.2734375 24.2734375 C-1.50615892 21.2399908 -1.50615892 21.2399908 -0.2734375 18.2734375 C2.0365625 18.2734375 4.3465625 18.2734375 6.7265625 18.2734375 C6.49947831 23.83700009 5.12920938 26.61039359 1.4921875 30.79296875 C-3.02771848 34.58288992 -7.89091378 34.70410756 -13.55078125 34.58984375 C-18.80688599 33.97901953 -21.94456401 31.67414199 -25.5859375 27.8359375 C-29.15181165 22.42109157 -30.1401778 17.69373602 -29.2734375 11.2734375 C-27.2025567 4.91527375 -23.86764404 1.27021891 -18.0234375 -1.9765625 C-11.53572132 -3.74593964 -5.89128107 -3.30944474 0 0 Z " fill="#1D1B16" transform="translate(59.2734375,48.7265625)"/>
<path d="M0 0 C1.134375 0.020625 2.26875 0.04125 3.4375 0.0625 C7.13416553 7.26776383 10.51875209 14.57531037 13.75 22 C14.20439453 23.02673828 14.65878906 24.05347656 15.12695312 25.11132812 C15.55556641 26.09423828 15.98417969 27.07714844 16.42578125 28.08984375 C17.00646362 29.41616821 17.00646362 29.41616821 17.59887695 30.76928711 C18.4375 33.0625 18.4375 33.0625 18.4375 36.0625 C16.1275 36.0625 13.8175 36.0625 11.4375 36.0625 C7.38249756 28.20332001 3.72706974 20.27186872 0.4375 12.0625 C-1.82006045 14.86266216 -3.29737682 17.48284072 -4.60546875 20.828125 C-4.95673828 21.71757813 -5.30800781 22.60703125 -5.66992188 23.5234375 C-6.02634766 24.44382812 -6.38277344 25.36421875 -6.75 26.3125 C-7.11802734 27.24835938 -7.48605469 28.18421875 -7.86523438 29.1484375 C-8.76982631 31.45103516 -9.66869401 33.7556989 -10.5625 36.0625 C-13.2025 36.0625 -15.8425 36.0625 -18.5625 36.0625 C-17.89872833 31.76427302 -16.39637936 28.00082572 -14.65625 24.046875 C-14.37148804 23.39044006 -14.08672607 22.73400513 -13.79333496 22.05767822 C-13.19381524 20.67838862 -12.59192372 19.30012777 -11.98779297 17.92285156 C-11.06042068 15.80775761 -10.14097207 13.68935199 -9.22265625 11.5703125 C-8.63848091 10.2289662 -8.05386115 8.88781335 -7.46875 7.546875 C-7.05465881 6.59382477 -7.05465881 6.59382477 -6.63220215 5.621521 C-4.19274235 0.07355688 -4.19274235 0.07355688 0 0 Z " fill="#1D1B16" transform="translate(82.5625,46.9375)"/>
<path d="M0 0 C1.65 0 3.3 0 5 0 C5 9.57 5 19.14 5 29 C10.94 29 16.88 29 23 29 C22.67 30.98 22.34 32.96 22 35 C14.08 35 6.16 35 -2 35 C-2.04586883 30.3366693 -2.08570572 25.6741186 -2.10986328 21.01074219 C-2.11993188 19.42380117 -2.13358767 17.83687875 -2.15087891 16.25 C-2.17509001 13.97130753 -2.18647422 11.69285994 -2.1953125 9.4140625 C-2.20563507 8.70255035 -2.21595764 7.99103821 -2.22659302 7.25796509 C-2.22699422 5.50368335 -2.12202209 3.75003291 -2 2 C-1.34 1.34 -0.68 0.68 0 0 Z " fill="#1D1B16" transform="translate(106,47)"/>
</svg>
